<?xml version="1.0" encoding="iso-8859-1"?>
<!-- Uploaded to: SVG Repo, www.svgrepo.com, Generator: SVG Repo Mixer Tools -->
<svg fill="#000000" height="800px" width="800px" version="1.1" id="Layer_1" xmlns="http://www.w3.org/2000/svg" xmlns:xlink="http://www.w3.org/1999/xlink" 
	 viewBox="0 0 511.998 511.998" xml:space="preserve">
<g>
	<g>
		<path d="M331.823,2.239c-4.148-2.634-9.357-2.967-13.805-0.876l-62.019,29.126L193.98,1.363
			c-4.449-2.088-9.658-1.756-13.805,0.876c-4.149,2.635-6.663,7.21-6.663,12.123v89.805c0.001,4.916,2.515,9.489,6.662,12.124
			c4.148,2.633,9.354,2.964,13.805,0.876l62.019-29.126l62.019,29.126c1.942,0.912,4.026,1.362,6.104,1.362
			c2.687,0,5.363-0.753,7.701-2.239c4.149-2.635,6.663-7.21,6.663-12.123V14.362C338.485,9.447,335.972,4.874,331.823,2.239z
			 M202.238,81.557V36.975l47.465,22.291L202.238,81.557z M309.762,81.557l-47.465-22.291l47.465-22.291V81.557z"/>
	</g>
</g>
<g>
	<g>
		<path d="M505.348,460.965l-48.387-341.002c-3.119-21.992-19.84-38.602-40.703-40.47l-41.141-4.673
			c-6.039-0.688-11.837,2.495-14.511,7.939L255.999,295.736L151.393,82.76c-2.673-5.447-8.474-8.614-14.511-7.939l-41.141,4.672
			c-20.859,1.87-37.581,18.477-40.703,40.469L6.651,460.965c-0.599,4.214,0.702,8.472,3.552,11.635
			c2.846,3.16,6.964,4.895,11.202,4.737l53.564-1.996c6.841-0.256,12.548-5.3,13.642-12.057l16.487-101.803l-0.195,136.135
			c-0.006,3.813,1.505,7.471,4.199,10.17c2.694,2.697,6.351,4.214,10.162,4.214h84.946c4.762,0,9.216-2.361,11.887-6.303
			l39.899-58.855l39.9,58.855c2.673,3.942,7.125,6.303,11.887,6.303h84.945c3.812,0,7.468-1.517,10.162-4.214
			c2.694-2.699,4.205-6.357,4.199-10.17l-0.194-136.135l16.486,101.803c1.094,6.756,6.802,11.801,13.642,12.057l53.564,1.996
			c4.199,0.171,8.353-1.577,11.202-4.737C504.645,469.438,505.946,465.179,505.348,460.965z M241.429,417.144l-44.831,66.132h-62.95
			l0.431-301.875c0.011-7.49-5.735-13.73-13.2-14.335c-7.474-0.607-14.142,4.626-15.339,12.018L62.138,447.077l-24.635,0.918
			l45.972-323.997c1.239-8.728,7.369-15.267,14.906-15.901c0.139-0.011,0.276-0.026,0.415-0.04l31.274-3.553l111.503,227.018
			L241.429,417.144z M449.862,447.076L406.46,179.083c-1.196-7.392-7.876-12.617-15.339-12.018
			c-7.465,0.606-13.211,6.846-13.2,14.335l0.429,301.875h-62.948l-44.832-66.132l-0.146-85.621l111.503-227.018l31.276,3.553
			c0.139,0.016,0.276,0.03,0.415,0.04c7.537,0.635,13.667,7.174,14.905,15.901l45.974,323.994L449.862,447.076z"/>
	</g>
</g>
<g>
	<g>
		<path d="M167.674,311.922c-7.931,0-14.362,6.431-14.362,14.362V438.3c0,7.931,6.431,14.362,14.362,14.362
			s14.362-6.431,14.362-14.362V326.283C182.035,318.353,175.606,311.922,167.674,311.922z"/>
	</g>
</g>
<g>
	<g>
		<path d="M181.755,280.623c-0.187-0.921-0.46-1.825-0.819-2.686c-0.359-0.863-0.804-1.696-1.321-2.485
			c-0.531-0.776-1.12-1.522-1.781-2.183c-0.675-0.661-1.406-1.264-2.183-1.781c-0.79-0.517-1.623-0.962-2.485-1.321
			c-0.862-0.359-1.765-0.632-2.686-0.819c-1.851-0.373-3.761-0.373-5.614,0c-0.921,0.187-1.825,0.46-2.686,0.819
			c-0.863,0.359-1.696,0.804-2.485,1.321c-0.776,0.517-1.522,1.12-2.183,1.781c-0.661,0.661-1.264,1.406-1.781,2.183
			c-0.517,0.79-0.962,1.623-1.321,2.485c-0.359,0.862-0.632,1.765-0.819,2.686c-0.187,0.932-0.287,1.867-0.287,2.815
			c0,3.777,1.537,7.467,4.209,10.152c0.658,0.659,1.405,1.25,2.18,1.781c0.79,0.517,1.623,0.962,2.485,1.321
			c0.862,0.359,1.765,0.632,2.686,0.819c0.932,0.187,1.867,0.287,2.799,0.287c0.948,0,1.883-0.101,2.815-0.287
			c0.921-0.187,1.825-0.46,2.686-0.819c0.863-0.359,1.696-0.804,2.485-1.321c0.776-0.531,1.508-1.12,2.183-1.781
			c2.671-2.686,4.194-6.375,4.194-10.152C182.027,282.49,181.941,281.555,181.755,280.623z"/>
	</g>
</g>
<g>
	<g>
		<path d="M344.325,269.067c-7.931,0-14.362,6.431-14.362,14.362v112.017c0,7.932,6.431,14.362,14.362,14.362
			c7.931,0,14.362-6.431,14.362-14.362V283.429C358.687,275.498,352.255,269.067,344.325,269.067z"/>
	</g>
</g>
<g>
	<g>
		<path d="M358.407,435.5c-0.187-0.921-0.46-1.825-0.819-2.7c-0.359-0.863-0.804-1.696-1.321-2.472
			c-0.517-0.79-1.12-1.522-1.781-2.183c-0.661-0.661-1.406-1.264-2.183-1.781c-0.79-0.531-1.623-0.962-2.485-1.321
			c-0.862-0.359-1.765-0.646-2.686-0.819c-1.851-0.388-3.761-0.388-5.614,0c-0.921,0.172-1.825,0.46-2.686,0.819
			c-0.863,0.359-1.696,0.79-2.485,1.321c-0.776,0.517-1.522,1.12-2.183,1.781c-0.661,0.661-1.264,1.393-1.781,2.183
			c-0.517,0.776-0.962,1.609-1.321,2.472c-0.359,0.875-0.632,1.779-0.819,2.7c-0.187,0.919-0.287,1.867-0.287,2.801
			c0,0.932,0.101,1.881,0.287,2.799c0.187,0.921,0.46,1.825,0.819,2.686c0.359,0.876,0.804,1.709,1.321,2.485
			c0.517,0.79,1.12,1.522,1.781,2.183c0.661,0.661,1.406,1.264,2.183,1.795c0.79,0.504,1.623,0.948,2.485,1.307
			c0.862,0.359,1.765,0.646,2.686,0.819c0.932,0.187,1.867,0.287,2.815,0.287c0.932,0,1.867-0.101,2.799-0.287
			c0.921-0.172,1.825-0.46,2.686-0.819c0.863-0.359,1.696-0.804,2.485-1.307c0.776-0.531,1.522-1.135,2.183-1.795
			s1.249-1.393,1.781-2.183c0.517-0.776,0.962-1.609,1.321-2.485c0.359-0.862,0.632-1.765,0.819-2.686
			c0.187-0.919,0.287-1.867,0.287-2.799C358.694,437.367,358.593,436.418,358.407,435.5z"/>
	</g>
</g>
</svg>