<?xml version="1.0" encoding="iso-8859-1"?>
<!-- Uploaded to: SVG Repo, www.svgrepo.com, Generator: SVG Repo Mixer Tools -->
<svg fill="#000000" height="800px" width="800px" version="1.1" id="Layer_1" xmlns="http://www.w3.org/2000/svg" xmlns:xlink="http://www.w3.org/1999/xlink" 
	 viewBox="0 0 512 512" xml:space="preserve">
<g transform="translate(1 1)">
	<g>
		<g>
			<path d="M458.071,341.625c0.089-0.587,0.119-1.192,0.081-1.81c-2.559-41.997-7.919-81.429-15.09-114.035
				c-0.009-0.042-0.018-0.084-0.027-0.126c-0.04-0.183-0.081-0.367-0.121-0.549c-10.493-47.959-24.955-81.132-40.527-85.425
				l-57.438-36.924c-0.286-0.184-0.579-0.347-0.876-0.492c-0.12-0.059-0.243-0.102-0.364-0.155
				c-0.178-0.077-0.355-0.158-0.536-0.222c-0.149-0.053-0.301-0.091-0.452-0.135c-0.156-0.046-0.311-0.096-0.468-0.132
				c-0.162-0.037-0.324-0.062-0.487-0.089c-0.148-0.025-0.296-0.054-0.444-0.071c-0.165-0.019-0.33-0.027-0.495-0.036
				c-0.148-0.008-0.295-0.018-0.443-0.019c-0.161-0.001-0.321,0.008-0.482,0.017c-0.152,0.008-0.303,0.016-0.454,0.032
				c-0.154,0.016-0.306,0.04-0.458,0.065c-0.156,0.025-0.311,0.052-0.466,0.085c-0.144,0.032-0.286,0.069-0.428,0.107
				c-0.159,0.043-0.318,0.09-0.474,0.142c-0.134,0.045-0.266,0.094-0.398,0.146c-0.158,0.062-0.314,0.128-0.469,0.199
				c-0.127,0.058-0.251,0.12-0.375,0.184c-0.151,0.079-0.299,0.163-0.445,0.251c-0.122,0.073-0.242,0.148-0.36,0.227
				c-0.138,0.092-0.272,0.191-0.405,0.291c-0.119,0.09-0.237,0.181-0.351,0.278c-0.12,0.101-0.235,0.209-0.349,0.317
				c-0.117,0.111-0.233,0.222-0.345,0.34c-0.1,0.106-0.194,0.218-0.289,0.33c-0.113,0.133-0.226,0.267-0.332,0.408
				c-0.082,0.11-0.157,0.227-0.235,0.341c-0.103,0.154-0.207,0.307-0.301,0.469c-0.072,0.123-0.135,0.254-0.201,0.382
				c-0.083,0.162-0.168,0.322-0.242,0.491c-0.013,0.029-0.029,0.056-0.042,0.085c-0.642,1.507-1.274,3.047-1.901,4.608
				l-67.049-40.226V58.733c0-4.713-3.82-8.533-8.533-8.533c-9.427,0-17.067-7.64-17.067-17.067c0-9.427,7.64-17.067,17.067-17.067
				c9.427,0,17.067,7.64,17.067,17.067c0,4.713,3.82,8.533,8.533,8.533s8.533-3.82,8.533-8.533C289.134,14.281,273.853-1,255-1
				s-34.133,15.281-34.133,34.133c0,15.906,10.877,29.269,25.6,33.058v4.781l-67.047,40.226c-0.626-1.561-1.259-3.101-1.9-4.607
				c-0.013-0.03-0.03-0.057-0.043-0.087c-0.074-0.169-0.158-0.328-0.241-0.489c-0.066-0.129-0.13-0.259-0.202-0.383
				c-0.094-0.162-0.197-0.314-0.3-0.468c-0.078-0.115-0.153-0.232-0.235-0.342c-0.105-0.141-0.218-0.274-0.331-0.408
				c-0.095-0.112-0.189-0.224-0.289-0.33c-0.111-0.118-0.228-0.229-0.345-0.34c-0.114-0.108-0.229-0.215-0.349-0.316
				c-0.115-0.097-0.233-0.188-0.352-0.279c-0.133-0.101-0.267-0.199-0.404-0.291c-0.118-0.079-0.238-0.154-0.36-0.227
				c-0.146-0.088-0.294-0.172-0.445-0.25c-0.124-0.065-0.249-0.126-0.376-0.184c-0.154-0.071-0.31-0.137-0.468-0.199
				c-0.132-0.052-0.265-0.101-0.399-0.146c-0.156-0.052-0.314-0.099-0.473-0.142c-0.142-0.039-0.285-0.076-0.429-0.108
				c-0.154-0.034-0.31-0.06-0.466-0.085c-0.152-0.025-0.304-0.049-0.458-0.065c-0.151-0.016-0.302-0.024-0.454-0.032
				c-0.16-0.008-0.32-0.017-0.481-0.017c-0.148,0.001-0.295,0.011-0.443,0.019c-0.165,0.009-0.33,0.017-0.495,0.036
				c-0.148,0.017-0.296,0.046-0.444,0.071c-0.163,0.028-0.325,0.052-0.487,0.089c-0.157,0.036-0.312,0.086-0.467,0.132
				c-0.151,0.044-0.302,0.082-0.452,0.136c-0.181,0.064-0.359,0.146-0.538,0.223c-0.121,0.052-0.243,0.096-0.362,0.154
				c-0.297,0.146-0.59,0.309-0.876,0.492l-57.436,36.923c-15.591,4.293-30.069,37.535-40.567,85.585
				c-0.016,0.07-0.031,0.14-0.046,0.21c-0.045,0.208-0.091,0.417-0.136,0.626c-7.137,32.545-12.473,71.857-15.023,113.715
				c-0.038,0.62-0.008,1.228,0.082,1.817c-2.435,41.659-2.158,85.6,1.715,127.489c0.295,3.186,2.319,5.821,5.091,7.031v17.783
				c0,9.423,7.643,17.067,17.067,17.067h25.6c9.423,0,17.067-7.643,17.067-17.067v-18.787c1.621-1.221,2.809-3.008,3.236-5.116
				c0.102-0.502,0.304-1.47,0.597-2.837c0.492-2.291,1.059-4.848,1.694-7.603c1.094-4.75,2.258-9.483,3.462-14.109l8.516,25.55
				c1.161,3.484,4.422,5.834,8.095,5.835v17.067c0,9.423,7.643,17.067,17.067,17.067h187.733c9.423,0,17.067-7.643,17.067-17.067
				v-17.067h0.001c3.673,0,6.934-2.35,8.095-5.835l8.515-25.545c1.204,4.624,2.367,9.356,3.461,14.104
				c0.635,2.755,1.202,5.311,1.694,7.603c0.293,1.366,0.495,2.334,0.597,2.837c0.428,2.108,1.615,3.896,3.237,5.117v18.786
				c0,9.423,7.643,17.067,17.067,17.067h25.6c9.423,0,17.067-7.643,17.067-17.067V476.15c2.771-1.21,4.795-3.845,5.09-7.03
				C460.23,427.229,460.507,383.286,458.071,341.625z M392.556,331.801c-0.019-2.184-0.044-4.386-0.08-6.616
				c-0.001-1.265-0.006-2.54-0.014-3.825c-0.206-32.511-2.894-72.02-8.798-124.939c-0.135-1.214-0.275-2.447-0.414-3.675
				c-0.076-0.672-0.146-1.332-0.223-2.006c-0.001-0.013-0.003-0.025-0.004-0.038c0.067-1.047,0.271-2.725,0.696-4.856
				c0.061-0.304,0.126-0.618,0.196-0.941c0.494-2.282,1.155-4.56,1.978-6.804c1.005-2.74,2.255-5.428,3.796-7.995
				c0.027-0.045,0.056-0.087,0.083-0.131c0.378-0.626,0.773-1.238,1.18-1.84c0.083-0.123,0.172-0.242,0.257-0.365
				c0.071-0.103,0.144-0.204,0.216-0.307c0.297-0.421,0.599-0.839,0.911-1.247c0.069-0.09,0.14-0.178,0.209-0.268
				c0.118-0.152,0.236-0.303,0.355-0.453c0.313-0.392,0.633-0.777,0.96-1.156c0.013-0.016,0.027-0.031,0.041-0.047
				c0.178-0.206,0.355-0.414,0.538-0.616c0.375-0.417,0.763-0.822,1.157-1.223c0.158-0.161,0.311-0.328,0.473-0.487
				c0.542-0.534,1.101-1.053,1.678-1.557c0.161-0.141,0.331-0.275,0.495-0.414c0.445-0.377,0.898-0.748,1.363-1.108
				c0.163-0.126,0.331-0.249,0.497-0.373c0.068-0.051,0.137-0.102,0.206-0.153c0.205-0.151,0.418-0.296,0.627-0.444
				c3.568,4.152,9.396,15.952,15.148,33.301c4.153,12.915,8.373,28.861,12.052,46.861c5.653,27.953,9.974,60.06,12.385,93.723
				H392.556z M384.861,149.067c-0.879,0.833-1.733,1.686-2.551,2.569c-0.129,0.14-0.249,0.287-0.377,0.428
				c-0.687,0.756-1.352,1.529-1.996,2.319c-0.248,0.304-0.488,0.614-0.73,0.923c-0.529,0.676-1.042,1.364-1.54,2.063
				c-0.22,0.309-0.444,0.615-0.658,0.928c-0.658,0.962-1.296,1.939-1.9,2.94c-0.018,0.03-0.038,0.057-0.056,0.087
				c-2.493,4.154-4.376,8.291-5.767,12.245c-2.279,6.476-3.233,12.46-3.353,17.219l0.049,1.157c0.088,0.771,0.172,1.526,0.259,2.291
				c0.288,2.55,0.575,5.097,0.848,7.615c0.02,0.185,0.039,0.366,0.059,0.551c5.312,49.058,7.918,92.045,8.227,129.399h-60.641
				c0-55.737,4.969-108.092,13.747-151.422c0.041-0.156,0.085-0.31,0.117-0.47c4.061-19.923,8.921-37.825,14.429-53.242
				c0.094-0.263,0.171-0.528,0.238-0.793c0.383-1.062,0.765-2.13,1.154-3.169l40.662,26.14
				C385.005,148.916,384.937,148.994,384.861,149.067z M212.331,333.517c0.002-0.574,0.003-1.127,0.003-1.717
				c0-52.688-4.355-102.511-12.208-145.062h109.75c-7.854,42.552-12.208,92.374-12.208,145.062c0,0.603,0.001,1.167,0.003,1.747
				c0.072,41.122,2.682,65.837,9.042,92.439c1.386,5.796,5.92,22.565,8.989,33.814H194.3c3.069-11.249,7.603-28.018,8.989-33.814
				C209.651,399.378,212.261,374.657,212.331,333.517z M255,85.756l64.064,38.435c-3.699,1.868-8.004,2.809-12.863,2.809h-102.4
				c-4.093,0-8.252-1.222-12.042-3.302L255,85.756z M189.647,141.445c4.54,1.683,9.324,2.621,14.154,2.621h102.4
				c4.97,0,9.647-0.698,13.983-2.023c-2.483,8.722-4.79,17.94-6.895,27.627H196.714
				C194.559,159.761,192.196,150.343,189.647,141.445z M165.582,122.704c0.388,1.035,0.769,2.099,1.15,3.158
				c0.067,0.27,0.145,0.538,0.24,0.804c5.507,15.418,10.368,33.319,14.429,53.242c0.035,0.173,0.082,0.34,0.127,0.509
				c8.774,43.322,13.739,95.663,13.739,151.383h-60.641c0.309-37.383,2.919-80.407,8.239-129.513
				c0.016-0.143,0.03-0.283,0.045-0.426c0.335-3.086,0.683-6.2,1.039-9.333c0.021-0.188,0.042-0.371,0.063-0.559l0.052-1.183
				c-0.027-1.053-0.098-2.172-0.212-3.337c-0.71-7.315-3.233-16.674-8.905-26.126c-0.016-0.026-0.034-0.051-0.05-0.077
				c-0.606-1.006-1.247-1.987-1.908-2.953c-0.213-0.312-0.436-0.616-0.655-0.924c-0.499-0.699-1.012-1.388-1.541-2.064
				c-0.242-0.31-0.483-0.62-0.732-0.925c-0.639-0.783-1.299-1.55-1.98-2.3c-0.134-0.148-0.26-0.302-0.396-0.449
				c-0.815-0.879-1.666-1.729-2.542-2.56c-0.078-0.074-0.148-0.154-0.226-0.228L165.582,122.704z M69.481,331.8
				c2.413-33.684,6.739-65.81,12.398-93.776c3.665-17.924,7.866-33.808,12.003-46.689c5.765-17.414,11.612-29.26,15.186-33.421
				c0.19,0.135,0.384,0.267,0.571,0.405c0.12,0.088,0.239,0.176,0.358,0.265c0.139,0.105,0.281,0.207,0.418,0.313
				c0.448,0.346,0.882,0.703,1.311,1.065c0.004,0.003,0.007,0.006,0.011,0.009c0.175,0.148,0.356,0.291,0.528,0.442
				c0.565,0.495,1.113,1.004,1.644,1.526c0.203,0.2,0.396,0.408,0.594,0.612c0.348,0.358,0.694,0.718,1.028,1.087
				c0.224,0.248,0.441,0.501,0.658,0.754c0.295,0.344,0.585,0.692,0.869,1.046c0.214,0.267,0.426,0.535,0.634,0.808
				c0.278,0.366,0.547,0.739,0.813,1.114c0.19,0.267,0.383,0.531,0.566,0.803c0.325,0.482,0.637,0.975,0.944,1.473
				c0.097,0.158,0.202,0.31,0.297,0.469c2.802,4.67,4.677,9.733,5.776,14.802c0.117,0.539,0.218,1.048,0.309,1.536
				c0.346,1.845,0.521,3.312,0.582,4.258c-0.601,5.284-1.169,10.427-1.708,15.454c-3.785,35.246-6.074,64.365-7.101,89.455
				c-0.021,0.52-0.04,1.03-0.06,1.546c-0.029,0.755-0.06,1.513-0.087,2.261c-0.333,9.126-0.495,17.713-0.498,25.871
				c-0.034,2.169-0.058,4.311-0.077,6.437C115.033,331.752,69.481,331.8,69.481,331.8z M75.8,493.933v-17.066h25.6v17.066H75.8z
				 M113.463,431.883c-2.175,7.619-4.228,15.75-6.1,23.877c-0.322,1.398-0.628,2.748-0.916,4.04H69.961
				c-3.022-36.8-3.432-74.445-1.565-110.933h49.072c0.261,23.032,1.483,43.236,3.509,60.747
				C118.471,415.595,115.967,423.114,113.463,431.883z M142.369,435.16c-1.057-4.592-2.125-10.35-3.128-17.342
				c-0.363-2.528-0.702-5.14-1.027-7.804c-0.005-0.052-0.002-0.104-0.008-0.157c-2.033-17.001-3.303-37.241-3.566-60.991h60.462
				c-0.642,30.889-3.196,51.341-8.411,73.151c-1.53,6.401-7.175,27.161-10.084,37.783H152.6h-2.382l-6.588-19.765
				C143.426,439.415,142.977,437.804,142.369,435.16z M348.867,493.933H161.134v-17.067h21.974h143.787h21.972V493.933z
				 M367.634,435.16c-0.608,2.643-1.057,4.255-1.27,4.901l-6.58,19.738H357.4h-24.004c-2.908-10.622-8.553-31.382-10.084-37.783
				c-5.215-21.81-7.77-42.262-8.411-73.151h60.458c-0.266,23.803-1.535,44.016-3.565,60.991c-0.008,0.064-0.004,0.127-0.01,0.191
				c-0.323,2.651-0.661,5.252-1.023,7.769C369.758,424.81,368.691,430.568,367.634,435.16z M389.024,409.619
				c2.026-17.512,3.249-37.717,3.51-60.751h49.07c1.867,36.488,1.458,74.132-1.565,110.932h-36.486
				c-0.288-1.293-0.593-2.642-0.915-4.04c-1.872-8.127-3.925-16.258-6.1-23.877C394.033,423.116,391.53,415.599,389.024,409.619z
				 M408.6,493.933v-17.066h25.6v17.066H408.6z"/>
			<path d="M346.368,368.433c-3.332-3.333-8.735-3.333-12.068,0c-3.332,3.332-3.332,8.735,0,12.068l17.067,17.067
				c3.332,3.333,8.735,3.333,12.068,0c3.332-3.332,3.332-8.735,0-12.068L346.368,368.433z"/>
			<path d="M158.634,397.567l17.067-17.067c3.332-3.332,3.332-8.735,0-12.068c-3.332-3.333-8.735-3.333-12.068,0l-17.067,17.067
				c-3.333,3.332-3.333,8.735,0,12.068C149.899,400.9,155.302,400.9,158.634,397.567z"/>
		</g>
	</g>
</g>
</svg>