<?xml version="1.0" encoding="iso-8859-1"?>
<!-- Uploaded to: SVG Repo, www.svgrepo.com, Generator: SVG Repo Mixer Tools -->
<svg fill="#000000" height="800px" width="800px" version="1.1" id="Layer_1" xmlns="http://www.w3.org/2000/svg" xmlns:xlink="http://www.w3.org/1999/xlink" 
	 viewBox="0 0 512 512" xml:space="preserve">
<g>
	<g>
		<path d="M342.499,58.206V18.732C342.499,8.387,334.112,0,323.768,0H188.232c-10.345,0-18.732,8.387-18.732,18.732v39.474
			c-88.976,0-149.695,69.585-149.695,146.532v190.514c0,10.345,8.387,18.732,18.732,18.732h75.539v79.285
			c0,10.345,8.387,18.732,18.732,18.732h246.384c10.345,0,18.732-8.387,18.732-18.732v-79.285h75.539
			c10.345,0,18.732-8.387,18.732-18.732V204.738C492.194,127.896,431.576,58.206,342.499,58.206z M206.964,37.463h98.072v20.742
			c-20.659,0-47.785,0-98.072,0V37.463z M114.07,376.52H57.269v-17.811h56.801V376.52z M237.268,474.537h-85.729
			c0-13.371-0.006-266.606-0.006-279.973c0-10.345-8.387-18.732-18.732-18.732s-18.732,8.387-18.732,18.732v126.681H57.269V204.738
			c0-60.14,48.928-109.068,109.068-109.068c1.924,0,27.145,0.001,70.931,0.001V474.537z M379.198,175.832
			c-10.345,0-18.732,8.387-18.732,18.732c0,13.368-0.006,266.602-0.006,279.973h-85.729V95.67c8.539,0,62.67-0.001,70.931-0.001
			c60.141,0,109.068,48.928,109.068,109.068v116.508H397.93V194.564C397.93,184.219,389.543,175.832,379.198,175.832z
			 M454.731,376.52H397.93v-17.811h56.801V376.52z"/>
	</g>
</g>
</svg>