<?xml version="1.0" encoding="iso-8859-1"?>
<!-- Uploaded to: SVG Repo, www.svgrepo.com, Generator: SVG Repo Mixer Tools -->
<svg fill="#000000" height="800px" width="800px" version="1.1" id="Layer_1" xmlns="http://www.w3.org/2000/svg" xmlns:xlink="http://www.w3.org/1999/xlink" 
	 viewBox="0 0 512 512" xml:space="preserve">
<g>
	<g>
		<path d="M501.258,500.267c-1.387-14.827-36.587-364.373-87.36-432c-1.28-1.707-3.093-2.987-5.12-3.733l-59.947-19.947
			L328.884,5.76C327.071,2.24,323.338,0,319.391,0H203.338c-3.947,0-7.68,2.24-9.493,5.76l-19.84,38.613l-70.187,20.053
			c-2.24,0.64-4.267,2.027-5.653,3.84c-50.773,67.627-85.973,417.173-87.467,432c-0.64,5.867,3.733,11.093,9.493,11.627
			c0.32,0,0.747,0.107,1.173,0.107h64.427c5.12,0,9.493-3.627,10.453-8.747l53.44-287.04l10.133,50.56l-31.68,200.747
			c-0.64,4.16,1.173,8.213,4.587,10.56c34.347,23.04,119.68,23.253,123.307,23.253c10.133,0,100.16-0.64,133.867-23.147
			c3.627-2.453,5.44-6.827,4.48-11.093l-42.133-200L369.951,208l46.08,294.933c0.853,5.227,5.227,9.067,10.56,9.067h64
			c5.867,0,10.667-4.693,10.773-10.56C501.365,501.013,501.365,500.693,501.258,500.267z M245.471,479.787
			c-25.707-0.853-71.467-4.693-94.933-16.107l30.72-195.307c0.213-1.28,0.213-2.56-0.107-3.733l-21.333-106.667
			c-0.96-5.013-5.12-8.853-10.56-8.533c-5.12,0-9.493,3.733-10.453,8.747l-61.867,332.48H33.204
			C46.111,365.973,77.471,138.24,113.311,83.84l60.373-17.28c3.84,13.653,12.587,37.333,29.76,58.133
			c-0.427,1.067-0.64,2.133-0.64,3.307v149.333c0,5.867,4.8,10.667,10.667,10.667s10.667-4.8,10.667-10.667V144.32
			c6.613,4.907,13.76,8.96,21.333,12.16V479.787z M192.564,54.72l17.28-33.387h103.04l16.96,32.853
			c-5.12,14.4-26.24,66.027-73.707,83.627C211.231,120.213,195.871,68.48,192.564,54.72z M435.871,490.667L383.924,158.4
			c-0.96-5.867-6.4-9.813-12.16-8.853c-4.053,0.64-7.36,3.52-8.533,7.467l-32,106.667c-0.533,1.707-0.64,3.52-0.213,5.227
			l41.067,194.987c-24.853,11.52-76.693,15.253-105.28,16V156.8c7.467-2.987,14.613-6.827,21.333-11.307v131.84
			c0,5.867,4.8,10.667,10.667,10.667s10.667-4.8,10.667-10.667V128c0-0.107,0-0.107,0-0.213
			c21.333-21.653,33.28-47.04,38.613-61.013l50.667,16.853c35.84,54.08,67.307,282.24,80.213,407.04H435.871z"/>
	</g>
</g>
</svg>