<?xml version="1.0" encoding="iso-8859-1"?>
<!-- Uploaded to: SVG Repo, www.svgrepo.com, Generator: SVG Repo Mixer Tools -->
<svg fill="#000000" height="800px" width="800px" version="1.1" id="Layer_1" xmlns="http://www.w3.org/2000/svg" xmlns:xlink="http://www.w3.org/1999/xlink" 
	 viewBox="0 0 503.605 503.605" xml:space="preserve">
<g>
	<g>
		<path d="M335.737,284.536c0-20.983,4.196-61.271,9.232-99.881c4.197-34.413,7.554-67.987,7.554-83.934
			c0-29.377-11.751-47.003-16.787-53.718V16.786c0-5.036-3.357-8.393-8.393-8.393h-41.967c0-5.036-3.357-8.393-8.393-8.393h-50.361
			c-5.036,0-8.393,3.357-8.393,8.393h-41.967c-5.036,0-8.393,3.357-8.393,8.393v30.216c-5.036,6.715-16.787,24.341-16.787,53.718
			c0,15.948,3.357,49.521,7.554,83.934c5.036,38.61,9.233,78.898,9.233,100.721c0,41.128-16.787,207.318-16.787,208.997
			c0,2.518,0.839,5.036,2.518,6.715c0.839,1.679,3.357,2.518,5.875,2.518h75.541c2.518,0,4.197-0.839,5.875-2.518
			c1.679-1.679,2.518-4.197,2.518-5.875c0-1.679-8.393-151.082-8.393-183.816v-93.167c0-14.269,10.072-40.289,16.787-57.915
			c6.715,17.626,16.787,43.646,16.787,57.915v92.328c0,32.734-8.393,182.977-8.393,183.816c0,2.518,0.839,4.197,2.518,5.875
			c1.679,1.679,4.197,2.518,5.875,2.518h75.541c2.518,0,5.036-0.839,5.875-2.518c1.679-1.679,2.518-4.197,2.518-6.715
			C352.523,491.854,335.737,325.664,335.737,284.536z M218.228,41.966h-33.574V25.179h33.574V41.966z M235.015,16.786h33.574V50.36
			h-33.574V16.786z M280.34,133.455c-2.518,1.679-18.466,9.233-28.538,9.233c-10.072,0-26.02-7.554-28.538-9.233
			c-4.197-1.679-5.875-6.715-3.357-10.911c1.679-4.197,6.715-5.875,10.911-3.357c5.875,3.357,16.787,7.554,21.823,7.554
			c4.197,0,15.108-4.197,21.823-7.554c4.197-1.679,9.233,0,10.911,3.357C287.055,125.901,284.537,130.937,280.34,133.455z
			 M318.95,41.966h-33.574V25.179h33.574V41.966z"/>
	</g>
</g>
</svg>