<?xml version="1.0" encoding="iso-8859-1"?>
<!-- Uploaded to: SVG Repo, www.svgrepo.com, Generator: SVG Repo Mixer Tools -->
<!DOCTYPE svg PUBLIC "-//W3C//DTD SVG 1.1//EN" "http://www.w3.org/Graphics/SVG/1.1/DTD/svg11.dtd">
<svg fill="#000000" height="800px" width="800px" version="1.1" id="Capa_1" xmlns="http://www.w3.org/2000/svg" xmlns:xlink="http://www.w3.org/1999/xlink" 
	 viewBox="0 0 297 297" xml:space="preserve">
<g>
	<path d="M247.5,14c0-8.25-6.417-14-14.667-14h-168C56.583,0,49.5,5.75,49.5,14v18h198V14z"/>
	<path d="M209.759,72.657c-3.124-3.125-3.041-8.189,0.083-11.314c3.125-3.123,8.065-3.123,11.19,0L247.5,87.936V48h-198v40.686
		l27.509-27.343c3.125-3.123,8.273-3.123,11.398,0c3.124,3.125,2.999,8.189-0.125,11.314L49.5,111.314V281
		c0,8.25,7.083,16,15.333,16h52c8.25,0,14.667-7.75,14.667-16V123.412c0-8.25,7.083-14.412,15.333-14.412h3
		c8.25,0,14.667,6.162,14.667,14.412V281c0,8.25,7.083,16,15.333,16h53c8.25,0,14.667-7.75,14.667-16V110.564L209.759,72.657z"/>
</g>
</svg>